<svg xmlns="http://www.w3.org/2000/svg" viewBox="0 0 512 214" fill="none">
  <path fill="#635BFF" d="M512 110.08c0-36.409-17.636-65.138-51.342-65.138-33.85 0-54.33 28.73-54.33 64.854 0 42.808 24.179 64.426 58.881 64.426 16.925 0 29.725-3.84 39.396-9.244v-28.445c-9.67 4.836-20.764 7.823-34.844 7.823-13.796 0-26.027-4.836-27.591-21.618h69.547c0-1.85.283-9.244.283-12.658zm-70.258-13.511c0-16.071 9.814-22.756 18.774-22.756 8.675 0 17.92 6.685 17.92 22.756h-36.694zM340.31 44.942c-13.939 0-22.899 6.542-27.878 11.094l-1.85-8.818h-31.288v165.83l35.555-7.537.143-40.249c5.12 3.698 12.657 8.96 25.173 8.96 25.458 0 48.64-20.48 48.64-65.564-.142-41.245-23.609-63.716-48.496-63.716zm-8.534 97.991c-8.391 0-13.37-2.987-16.782-6.684l-.143-52.765c3.698-4.124 8.818-6.969 16.925-6.969 12.942 0 21.902 14.506 21.902 33.138 0 19.058-8.818 33.28-21.902 33.28zM233.748 36.408l35.698-7.68V0l-35.698 7.538v28.87zM233.748 47.793h35.698v124.444h-35.698V47.793zM196.737 58.32l-2.276-10.527h-30.72v124.445h35.555V87.048c8.391-10.953 22.614-8.96 27.022-7.396V47.792c-4.551-1.707-21.191-4.836-29.58 10.527zM125.3 16.64l-34.702 7.395-.143 113.918c0 21.049 15.787 36.551 36.836 36.551 11.662 0 20.196-2.133 24.889-4.693V141.58c-4.55 1.849-27.022 8.391-27.022-12.658V75.95h27.022V47.792H125.158L125.3 16.64zM37.546 84.202c0-5.547 4.551-7.68 12.09-7.68 10.81 0 24.462 3.27 35.272 9.103V52.059c-11.804-4.693-23.466-6.542-35.272-6.542C19.342 45.517 0 60.733 0 85.054c0 37.969 52.198 31.856 52.198 48.211 0 6.542-5.689 8.676-13.654 8.676-11.804 0-26.88-4.836-38.827-11.378v33.849c13.227 5.689 26.596 8.107 38.827 8.107 31.573 0 53.333-15.644 53.333-40.392-.143-40.96-52.482-33.707-52.482-49.072.143.143.143-.853.15-.853z"/>
</svg>